HIERARCHY
ROOT Hips
{
	OFFSET -0.001795 -0.223333 0.028219
	CHANNELS 6 Xposition Yposition Zposition Zrotation Yrotation Xrotation 
	JOINT LeftUpLeg
	{
		OFFSET 0.069520 -0.091406 -0.006815
		CHANNELS 3 Zrotation Yrotation Xrotation
		JOINT LeftLeg
		{
			OFFSET 0.034277 -0.375199 -0.004496
			CHANNELS 3 Zrotation Yrotation Xrotation
			JOINT LeftFoot
			{
				OFFSET -0.013596 -0.397961 -0.043693
				CHANNELS 3 Zrotation Yrotation Xrotation
				JOINT LeftToe
				{
					OFFSET 0.026358 -0.055791 0.119288
					CHANNELS 3 Zrotation Yrotation Xrotation
					End Site
					{
						OFFSET 0.000000 0.000000 0.000000
					}
				}
			}
		}
	}
	JOINT RightUpLeg
	{
		OFFSET -0.067670 -0.090522 -0.004320
		CHANNELS 3 Zrotation Yrotation Xrotation
		JOINT RightLeg
		{
			OFFSET -0.038290 -0.382569 -0.008850
			CHANNELS 3 Zrotation Yrotation Xrotation
			JOINT RightFoot
			{
				OFFSET 0.015774 -0.398415 -0.042312
				CHANNELS 3 Zrotation Yrotation Xrotation
				JOINT RightToe
				{
					OFFSET -0.025372 -0.048144 0.123348
					CHANNELS 3 Zrotation Yrotation Xrotation
					End Site
					{
						OFFSET 0.000000 0.000000 0.000000
					}
				}
			}
		}
	}
	JOINT Spine
	{
		OFFSET -0.002533 0.108963 -0.026696
		CHANNELS 3 Zrotation Yrotation Xrotation
		JOINT Spine1
		{
			OFFSET 0.005487 0.135180 0.001092
			CHANNELS 3 Zrotation Yrotation Xrotation
			JOINT Spine2
			{
				OFFSET 0.001457 0.052922 0.025425
				CHANNELS 3 Zrotation Yrotation Xrotation
				JOINT Neck
				{
					OFFSET -0.002778 0.213870 -0.042857
					CHANNELS 3 Zrotation Yrotation Xrotation
					JOINT Head
					{
						OFFSET 0.005152 0.064970 0.051349
						CHANNELS 3 Zrotation Yrotation Xrotation
						End Site
						{
							OFFSET 0.000000 0.000000 0.000000
						}
					}
				}
				JOINT LeftShoulder
				{
					OFFSET 0.078845 0.121749 -0.034090
					CHANNELS 3 Zrotation Yrotation Xrotation
					JOINT LeftArm
					{
						OFFSET 0.090977 0.030469 -0.008868
						CHANNELS 3 Zrotation Yrotation Xrotation
						JOINT LeftForeArm
						{
							OFFSET 0.259612 -0.012772 -0.027456
							CHANNELS 3 Zrotation Yrotation Xrotation
							JOINT LeftHand
							{
								OFFSET 0.249234 0.008986 -0.001171
								CHANNELS 3 Zrotation Yrotation Xrotation
								End Site
								{
									OFFSET 0.000000 0.000000 0.000000
								}
							}
						}
					}
				}
				JOINT RightShoulder
				{
					OFFSET -0.081759 0.118833 -0.038615
					CHANNELS 3 Zrotation Yrotation Xrotation
					JOINT RightArm
					{
						OFFSET -0.096012 0.032551 -0.009143
						CHANNELS 3 Zrotation Yrotation Xrotation
						JOINT RightForeArm
						{
							OFFSET -0.253742 -0.013329 -0.021401
							CHANNELS 3 Zrotation Yrotation Xrotation
							JOINT RightHand
							{
								OFFSET -0.255298 0.007772 -0.005559
								CHANNELS 3 Zrotation Yrotation Xrotation
								End Site
								{
									OFFSET 0.000000 0.000000 0.000000
								}
							}
						}
					}
				}
			}
		}
	}
}
MOTION
Frames: 16
Frame Time: 0.050000
0.015803 0.406315 0.156024 0.507503 -0.427054 -6.009541 31.110600 -19.054441 84.541097 -26.281710 -35.447071 -127.958298 147.359460 57.363593 109.478210 0.000000 0.000000 0.000000 -34.679597 22.755069 84.241454 15.326508 18.963686 -131.889538 -144.787621 -45.308704 123.878068 0.000000 0.000000 0.000000 0.428836 2.838570 -54.809621 -2.624666 1.252651 -50.520037 -0.138622 -1.626236 80.854513 15.340915 -1.063801 -77.930533 0.000000 0.000000 0.000000 6.854019 -5.522544 -0.162205 -56.426204 -23.228396 -5.924608 -77.663112 41.319261 -21.979566 0.000000 0.000000 0.000000 -2.654032 -2.412258 -1.377000 51.649879 13.031595 -10.813778 132.590496 -73.274627 -107.490613 0.000000 0.000000 0.000000 
0.015000 0.363328 0.156246 0.973298 0.544089 -5.522102 34.188105 -23.946374 87.542120 -24.800343 -36.747623 -133.817776 148.906639 51.226163 113.635430 0.000000 0.000000 0.000000 -35.842955 24.603744 87.895222 13.187477 17.062596 -136.324611 -159.443077 -46.020969 127.696254 0.000000 0.000000 0.000000 0.612646 2.540624 -54.108701 -6.173979 1.047451 -58.637854 1.050371 -4.463321 92.033919 14.868330 -0.651665 -84.747247 0.000000 0.000000 0.000000 8.372087 -4.281170 -1.936195 -54.515214 -25.841941 -6.589695 -94.577379 41.208465 -26.093059 0.000000 0.000000 0.000000 -5.565531 -1.921254 -1.983217 47.875619 12.791994 -13.235803 163.088692 -65.095941 -139.975420 0.000000 0.000000 0.000000 
0.013838 0.340159 0.156904 0.774146 1.259182 -5.891265 36.106629 -27.224097 89.089421 -24.275458 -37.692855 -136.705161 146.914449 46.401740 115.537073 0.000000 0.000000 0.000000 -37.974020 26.374536 88.405670 11.801773 15.778624 -138.844429 -170.604115 -44.053499 131.065197 0.000000 0.000000 0.000000 1.016938 2.538696 -55.122771 -8.724075 0.842936 -59.381906 1.151694 -6.768262 96.784414 19.746935 -1.562589 -87.521301 0.000000 0.000000 0.000000 8.667849 -3.582646 -2.930279 -49.146511 -24.517187 -8.190478 -114.920088 40.356548 -38.320866 0.000000 0.000000 0.000000 -8.778251 -2.204701 -2.866124 42.180932 12.450575 -13.345050 178.430260 -60.452116 -168.836488 0.000000 0.000000 0.000000 
0.012389 0.335634 0.159410 1.068517 1.626031 -5.799875 36.710786 -27.891002 88.581397 -24.046776 -37.164661 -136.666474 152.637687 46.434676 117.326052 0.000000 0.000000 0.000000 -38.102053 26.218836 88.372036 10.532946 13.882644 -140.338684 -177.789716 -43.713761 132.806019 0.000000 0.000000 0.000000 1.385011 2.627631 -55.587895 -10.303228 0.406358 -64.815776 1.796756 -7.669550 106.786288 23.987086 -1.523575 -93.957356 0.000000 0.000000 0.000000 13.569877 -2.853036 -6.255102 -46.359020 -20.308122 -10.955575 -144.012653 54.226243 -98.610220 0.000000 0.000000 0.000000 -12.947235 -4.642247 -5.745529 37.256526 9.518621 -14.604303 -148.896133 -63.703759 138.004535 0.000000 0.000000 0.000000 
0.010345 0.352929 0.162623 0.431187 1.958514 -6.209516 36.851644 -27.586790 86.858807 -20.844228 -31.650670 -137.000690 147.371088 38.094600 119.948869 0.000000 0.000000 0.000000 -37.744685 24.900359 86.971227 11.832359 15.752270 -137.376219 -170.366107 -45.387210 130.678068 0.000000 0.000000 0.000000 2.552294 3.121655 -55.537907 -12.073196 0.221440 -63.981545 3.049552 -7.875960 106.893443 30.643088 -2.403068 -94.796869 0.000000 0.000000 0.000000 18.127423 -2.205486 -8.343286 -43.154179 -14.009360 -12.523035 155.925035 70.555676 156.453599 0.000000 0.000000 0.000000 -14.685536 -5.164277 -6.802135 30.117764 5.653821 -12.857827 -109.202185 -65.544225 85.712622 0.000000 0.000000 0.000000 
0.008260 0.384687 0.161789 0.291215 1.462382 -6.070473 37.737517 -25.857608 82.114460 -23.111905 -32.065380 -130.909006 145.680393 40.741163 118.280360 0.000000 0.000000 0.000000 -38.454858 23.750523 81.791013 15.872578 20.234803 -130.628547 -173.385959 -52.160774 130.395692 0.000000 0.000000 0.000000 4.295050 3.936083 -51.421874 -11.854020 -0.625809 -73.156831 3.850956 -6.163805 115.646563 33.840561 -4.427115 -93.718892 0.000000 0.000000 0.000000 21.954942 -0.823861 -11.253134 -36.688742 -9.004767 -13.729115 81.936664 63.265986 61.407602 0.000000 0.000000 0.000000 -16.521549 -7.903115 -10.017306 24.576024 2.407318 -12.067276 -67.373742 -57.426034 40.121999 0.000000 0.000000 0.000000 
0.007256 0.442170 0.154090 0.029940 1.598994 -5.141073 36.507501 -22.088447 75.330646 -25.332682 -30.828802 -122.985654 137.959085 42.033678 115.784945 0.000000 0.000000 0.000000 -37.344993 20.755456 77.081068 20.245259 23.434980 -122.730596 -157.625148 -53.145906 124.560688 0.000000 0.000000 0.000000 4.570865 3.756587 -48.512275 -14.036920 -1.257583 -74.460192 5.068360 -8.439544 114.999724 28.708261 -4.153195 -92.012547 0.000000 0.000000 0.000000 24.582369 -0.826778 -12.534015 -32.137018 -3.821550 -12.789468 56.014600 46.150321 29.267533 0.000000 0.000000 0.000000 -19.896177 -5.695112 -10.337507 20.418171 -2.933145 -10.498004 -49.281361 -44.278821 19.826692 0.000000 0.000000 0.000000 
0.007575 0.525425 0.137606 -0.777812 2.000574 -6.153394 37.516676 -19.384303 65.274575 -27.833287 -29.025607 -112.289423 131.101694 40.782299 114.912532 0.000000 0.000000 0.000000 -37.508202 17.282209 67.934740 25.340606 24.524594 -109.848287 -147.873266 -53.491723 120.747861 0.000000 0.000000 0.000000 4.386509 3.002175 -40.699343 -14.317740 -2.358008 -82.589034 5.189925 -10.781653 118.962289 16.917623 -1.827152 -93.097311 0.000000 0.000000 0.000000 26.978752 -3.798091 -14.400531 -27.331312 3.072323 -12.240711 43.770166 38.001690 17.938487 0.000000 0.000000 0.000000 -20.936686 -4.754406 -10.917867 15.317919 -5.194039 -8.579747 -45.560477 -39.525554 13.956992 0.000000 0.000000 0.000000 
0.009851 0.633773 0.115790 0.275591 1.003690 -6.732256 35.724792 -13.725836 53.929530 -31.788335 -26.062965 -96.143334 126.978452 35.226109 117.996226 0.000000 0.000000 0.000000 -38.433674 14.485908 55.189018 30.035031 23.035826 -94.515616 -136.713088 -47.419150 120.453591 0.000000 0.000000 0.000000 3.892508 2.476916 -32.763684 -10.029043 -0.961518 -82.295827 5.207903 -5.500346 114.483301 11.664996 -0.541429 -93.102176 0.000000 0.000000 0.000000 27.369074 -1.764877 -12.683292 -20.911649 2.952373 -9.434616 34.367903 36.088795 11.569320 0.000000 0.000000 0.000000 -20.515663 -3.887525 -10.633773 10.904577 -6.598264 -5.967082 -39.093870 -35.916063 10.681105 0.000000 0.000000 0.000000 
0.013234 0.756090 0.091367 0.099098 -1.738012 -8.687556 33.289278 -8.551708 44.162683 -35.884320 -20.430194 -76.084390 114.257549 34.935033 115.784311 0.000000 0.000000 0.000000 -36.809297 11.522000 43.825238 31.579197 18.246473 -76.066218 -119.082099 -42.702600 118.154627 0.000000 0.000000 0.000000 5.348226 2.592616 -25.193523 -9.423819 0.587013 -67.866846 6.027099 -2.782432 93.707660 4.303795 1.268315 -90.580637 0.000000 0.000000 0.000000 28.337993 -5.628434 -8.223726 -19.757397 6.962044 -7.641958 30.000113 38.441859 10.521014 0.000000 0.000000 0.000000 -20.954582 -3.833058 -7.081894 8.485929 -4.410970 -3.261309 -34.991071 -34.667886 9.406874 0.000000 0.000000 0.000000 
0.016420 0.880483 0.068414 0.796952 -2.887001 -10.017153 27.499113 -3.596719 30.564875 -31.340243 -11.044660 -57.565767 103.933065 27.516060 121.347466 0.000000 0.000000 0.000000 -32.985563 6.371808 28.402784 29.314962 10.598646 -53.550722 -104.776160 -34.569474 121.127518 0.000000 0.000000 0.000000 4.803599 1.589508 -15.336092 -2.483553 1.807993 -68.596262 3.304972 5.647728 84.423778 1.293510 1.999629 -81.143838 0.000000 0.000000 0.000000 30.344960 -6.211918 -5.441891 -18.592793 6.595826 -6.488212 28.234188 41.892578 9.249774 0.000000 0.000000 0.000000 -22.635797 -4.605617 -7.444319 8.831554 -2.665990 -2.856182 -38.266393 -30.680099 10.994927 0.000000 0.000000 0.000000 
0.019204 0.976910 0.051651 0.598454 -5.405470 -9.987922 22.684984 -1.483877 26.043285 -24.350638 -5.458544 -48.835642 70.368166 27.794681 115.766864 0.000000 0.000000 0.000000 -29.246927 3.666695 17.283411 24.570726 5.049205 -35.550715 -74.274835 -31.244958 114.597805 0.000000 0.000000 0.000000 6.204094 1.549463 -12.069966 -1.675666 1.967207 -58.355606 1.438396 7.676674 66.818770 1.822104 2.305617 -72.424211 0.000000 0.000000 0.000000 32.858845 -9.257011 -2.987073 -21.917191 8.755246 -6.520459 32.647813 40.685178 10.978016 0.000000 0.000000 0.000000 -28.261060 1.042565 -4.851626 10.546253 -7.017736 -2.618310 -42.017799 -21.740681 9.312063 0.000000 0.000000 0.000000 
0.021799 1.017721 0.042432 0.579645 -4.901481 -9.403649 19.275891 -0.731441 22.102341 -21.476655 -3.704515 -43.346286 61.350467 27.244245 114.428446 0.000000 0.000000 0.000000 -24.115863 1.970135 12.747913 16.210759 1.720128 -27.000706 -56.076627 -28.872946 110.698309 0.000000 0.000000 0.000000 6.404064 1.140486 -8.402157 0.535116 2.136104 -59.858885 -0.417231 9.873972 65.044482 3.816119 2.025611 -73.244199 0.000000 0.000000 0.000000 32.417275 -8.243341 -2.184772 -25.941724 3.474554 -6.993803 47.705839 45.297666 18.950522 0.000000 0.000000 0.000000 -28.805203 -0.113379 -5.330239 11.498648 -4.845629 -2.707671 -50.062610 -20.630966 11.701939 0.000000 0.000000 0.000000 
0.024224 0.994208 0.043765 0.779297 -4.726666 -10.082463 17.231178 -0.505902 24.473444 -18.545206 -2.966746 -43.621367 61.594751 27.082051 115.368183 0.000000 0.000000 0.000000 -24.741278 2.587435 16.673424 19.019921 3.066236 -32.616343 -62.930158 -30.181030 111.734176 0.000000 0.000000 0.000000 7.611170 1.246657 -8.049192 -2.625404 1.752363 -54.428553 0.546897 9.202918 57.820823 11.444497 0.343481 -69.518182 0.000000 0.000000 0.000000 31.665715 -11.576738 -0.837601 -30.514899 4.027000 -7.833013 58.211307 39.793223 21.230444 0.000000 0.000000 0.000000 -27.377468 0.669510 -3.987118 11.537982 -4.883784 -2.461698 -59.198744 -16.934551 12.262651 0.000000 0.000000 0.000000 
0.025904 0.926537 0.053678 0.129802 -2.368084 -8.750458 19.549574 -1.804701 30.178388 -19.824856 -5.272382 -53.179148 63.921481 25.117327 119.093546 0.000000 0.000000 0.000000 -26.485769 3.960412 25.276572 22.044338 6.188667 -47.987086 -77.817764 -32.370590 115.662468 0.000000 0.000000 0.000000 6.644613 1.587239 -13.116761 -3.833509 1.467237 -52.398775 1.595576 7.236324 61.613976 10.532611 0.663089 -72.554596 0.000000 0.000000 0.000000 28.228598 -8.296700 -0.901775 -33.841815 -3.372523 -7.463675 84.246939 32.682029 28.916068 0.000000 0.000000 0.000000 -22.566439 -1.479081 -4.067753 12.354244 -7.408075 -3.051475 -73.231112 -14.361817 13.792982 0.000000 0.000000 0.000000 
0.025965 0.848316 0.066766 -0.968451 1.819174 -7.897360 23.394553 -4.467644 34.733381 -24.261277 -10.439981 -63.093881 88.812209 27.423678 118.481492 0.000000 0.000000 0.000000 -25.637761 4.373133 36.760721 21.596774 7.903669 -64.022493 -93.799779 -31.782494 122.712034 0.000000 0.000000 0.000000 4.057681 1.355492 -17.255508 -6.039727 1.134797 -51.091844 2.814835 1.572383 64.233158 10.770531 0.481516 -73.980224 0.000000 0.000000 0.000000 24.324234 -6.008637 -1.396941 -39.783722 -2.776707 -9.201935 102.495242 28.684173 37.600839 0.000000 0.000000 0.000000 -18.138030 -2.058076 -3.431950 13.767058 -10.769621 -3.888623 -85.951483 -13.889272 14.763515 0.000000 0.000000 0.000000 
